<?xml version="1.0" standalone="no"?>
<!DOCTYPE svg PUBLIC "-//W3C//DTD SVG 1.1//EN"
  "http://www.w3.org/Graphics/SVG/1.1/DTD/svg11.dtd">
<svg width="92.49986267089844mm" height="165.29800033569336mm" viewBox="24.959136962890625 -127 92.49986267089844 165.29800033569336" xmlns="http://www.w3.org/2000/svg" version="1.1">
	<title>svgOutput</title>
	<desc>made with tinkercad</desc>
<path d="M 34.50791549682617 29.767000198364258 L 34.50791549682617 30.114221572875977 L 34.50812911987305 30.719999313354492 L 34.508853912353516 32.768001556396484 L 34.509578704833984 34.816001892089844 L 34.51030349731445 36.86399841308594 L 34.51045608520508 37.29800033569336 L 32.768001556396484 37.29800033569336 L 32.400001525878906 37.29800033569336 L 28.808324813842773 37.29800033569336 L 28.808137893676758 37.29800033569336 L 28.808324813842773 37.13556671142578 L 28.808324813842773 36.86399841308594 L 28.808324813842773 32.768001556396484 L 28.808324813842773 29.767000198364258 L 32.768001556396484 29.767000198364258 L 34.507789611816406 29.767000198364258 L 34.50791549682617 29.767000198364258 M 116.30999755859375 -122.75 L 116.30387878417969 -122.74121856689453 L 116.29525756835938 -122.72884368896484 L 116.02193450927734 -122.31996154785156 L 115.888427734375 -122.1204833984375 L 115.88500213623047 -122.11499786376953 L 115.88455963134766 -122.11470794677734 L 115.86233520507812 -122.09989166259766 L 115.63026428222656 -121.94478607177734 L 115.49742126464844 -121.85600280761719 L 115.42192840576172 -121.80554962158203 L 115.25590515136719 -121.6944351196289 L 115.25133514404297 -121.69100189208984 L 115.25 -121.69000244140625 L 115.24870300292969 -121.68977355957031 L 115.22041320800781 -121.68482208251953 L 115.08586883544922 -121.65792846679688 L 114.68800354003906 -121.57839965820312 L 114.65799713134766 -121.57240295410156 L 114.50800323486328 -121.5426025390625 L 114.50215911865234 -121.54143524169922 L 114.50041961669922 -121.54108428955078 L 114.5 -121.54100036621094 L 114.46875 -121.54740905761719 L 113.85427856445312 -121.6701431274414 L 113.75872802734375 -121.68912506103516 L 113.75 -121.69000244140625 L 113.74827575683594 -121.69120788574219 L 113.72115325927734 -121.7101058959961 L 113.66400146484375 -121.7483139038086 L 113.5029067993164 -121.85600280761719 L 113.2068862915039 -122.05388641357422 L 113.1471176147461 -122.0938491821289 L 113.12269592285156 -122.11019134521484 L 113.12224578857422 -122.1104736328125 L 113.1161880493164 -122.1142578125 L 113.1150894165039 -122.11494445800781 L 113.11499786376953 -122.11499786376953 L 113.0938491821289 -122.146728515625 L 112.9403076171875 -122.37646484375 L 112.63999938964844 -122.71089172363281 L 112.63408660888672 -122.71747589111328 L 112.63050079345703 -122.7251968383789 L 112.62103271484375 -122.7587661743164 L 112.58243560791016 -122.87999725341797 L 112.57566833496094 -122.90126037597656 L 112.47869873046875 -123.17958068847656 L 112.47777557373047 -123.1822280883789 L 112.3808822631836 -123.4603271484375 L 112.36965942382812 -123.4925537109375 L 112.36968231201172 -123.49569702148438 L 112.36972045898438 -123.4993667602539 L 112.37230682373047 -123.52580261230469 L 112.40528106689453 -123.90399932861328 L 112.40540313720703 -123.90540313720703 L 112.42997741699219 -124.35160064697266 L 112.43230438232422 -124.35565185546875 L 112.44152069091797 -124.37228393554688 L 112.63999938964844 -124.75847625732422 L 112.72471618652344 -124.92330932617188 L 112.72695922851562 -124.9280014038086 L 112.8088607788086 -125.09912109375 L 112.83700561523438 -125.15792083740234 L 112.83818817138672 -125.15911865234375 L 112.83881378173828 -125.15974426269531 L 112.84718322753906 -125.16669464111328 L 113.50260162353516 -125.71880340576172 L 113.55809020996094 -125.76837158203125 L 113.55879974365234 -125.7686996459961 L 113.56187438964844 -125.76956176757812 L 113.66400146484375 -125.80207061767578 L 113.9280776977539 -125.8861312866211 L 114.07270050048828 -125.91497039794922 L 114.25843811035156 -125.9520034790039 L 114.498291015625 -125.99982452392578 L 114.49919128417969 -126 L 114.68800354003906 -125.96235656738281 L 114.73994445800781 -125.9520034790039 L 115.07030487060547 -125.8861312866211 L 115.45455169677734 -125.80976867675781 L 115.4573974609375 -125.8092041015625 L 115.71199798583984 -125.63920593261719 L 115.75242614746094 -125.61221313476562 L 115.7855224609375 -125.59011840820312 L 116.21965789794922 -125.22440338134766 L 116.22321319580078 -125.22145080566406 L 116.22398376464844 -125.2206802368164 L 116.2554931640625 -124.9280014038086 L 116.27857971191406 -124.71350860595703 L 116.3332748413086 -124.29618835449219 L 116.33879089355469 -124.26173400878906 L 116.33966827392578 -124.25733947753906 L 116.33955383300781 -124.25695037841797 L 116.33130645751953 -124.22869110107422 L 116.32844543457031 -124.2188949584961 L 116.32115173339844 -124.19392395019531 L 116.37876892089844 -123.90399932861328 L 116.44791412353516 -123.55609130859375 L 116.44859313964844 -123.55268859863281 L 116.44934844970703 -123.54887390136719 L 116.45899963378906 -123.5 L 116.45419311523438 -123.4765625 L 116.36425018310547 -123.0262451171875 L 116.33519744873047 -122.87999725341797 L 116.31063842773438 -122.75640106201172 L 116.31010437011719 -122.75106048583984 L 116.31004333496094 -122.75042724609375 L 116.30999755859375 -122.75 M 25.959136962890625 -34.29800033569336 L 25.959325790405273 -34.29800033569336 L 31.661455154418945 -34.29800033569336 L 31.6610050201416 -33.024017333984375 L 31.6610050201416 -33.02365493774414 L 31.660913467407227 -32.768001556396484 L 31.659465789794922 -28.672000885009766 L 31.658912658691406 -27.114221572875977 L 31.658912658691406 -26.767000198364258 L 30.719999313354492 -26.767000198364258 L 28.672000885009766 -26.767000198364258 L 25.959325790405273 -26.767000198364258 L 25.959325790405273 -28.672000885009766 L 25.959325790405273 -32.768001556396484 L 25.959325790405273 -34.13556671142578 L 25.959136962890625 -34.29800033569336 z" fill="none" stroke="rgb(255,0,0)" stroke-width="0.001mm" />
</svg>